<?xml version="1.0" encoding="UTF-8" standalone="no"?>
<!-- Created with Inkscape (http://www.inkscape.org/) -->

<svg
   width="169.08882mm"
   height="24.444164mm"
   viewBox="0 0 169.08825 24.444082"
   version="1.1"
   id="svg19220"
   inkscape:version="1.4.3 (0d15f75042, 2025-12-25)"
   sodipodi:docname="sotm-baltics-2026-paths.svg"
   inkscape:export-filename="/home/zverik/doc/sotm-baltics-2023-high.png"
   inkscape:export-xdpi="212.25999"
   inkscape:export-ydpi="212.25999"
   xmlns:inkscape="http://www.inkscape.org/namespaces/inkscape"
   xmlns:sodipodi="http://sodipodi.sourceforge.net/DTD/sodipodi-0.dtd"
   xmlns="http://www.w3.org/2000/svg"
   xmlns:svg="http://www.w3.org/2000/svg">
  <sodipodi:namedview
     id="namedview19222"
     pagecolor="#ffffff"
     bordercolor="#666666"
     borderopacity="1.0"
     inkscape:pageshadow="2"
     inkscape:pageopacity="0.0"
     inkscape:pagecheckerboard="0"
     inkscape:document-units="mm"
     showgrid="false"
     inkscape:zoom="0.90583674"
     inkscape:cx="260.5326"
     inkscape:cy="-77.828594"
     inkscape:window-width="1800"
     inkscape:window-height="1080"
     inkscape:window-x="0"
     inkscape:window-y="0"
     inkscape:window-maximized="1"
     inkscape:current-layer="layer1"
     fit-margin-top="15"
     fit-margin-bottom="15"
     fit-margin-left="0"
     fit-margin-right="0"
     inkscape:showpageshadow="false"
     inkscape:deskcolor="#d1d1d1" />
  <defs
     id="defs19217" />
  <g
     inkscape:label="Layer 1"
     inkscape:groupmode="layer"
     id="layer1"
     transform="translate(-17.230825,-73.414515)">
    <g
       id="g5153"
       transform="matrix(2.0257159,0,0,2.0257159,-90.067727,-126.48463)"
       style="stroke-width:0.493653"
       inkscape:export-filename="/home/zverik/progr/git/sotm-baltics-2023/img/sotmbaltics2023.png"
       inkscape:export-xdpi="212.25999"
       inkscape:export-ydpi="212.25999">
      <rect
         style="fill:#c1272d;fill-opacity:1;stroke:none;stroke-width:0.130612"
         id="rect3147-1"
         width="1.0583333"
         height="1.0583333"
         x="78.574448"
         y="109.68929"
         rx="0.26458332"
         ry="0.26458332"
         inkscape:export-filename="D:\sotm-baltics-600.png"
         inkscape:export-xdpi="103.01"
         inkscape:export-ydpi="103.01" />
      <rect
         y="108.11665"
         x="78.574448"
         height="1.0583333"
         width="1.0583333"
         id="rect3929-7"
         style="fill:#006a44;fill-opacity:1;stroke:none;stroke-width:0.130612"
         rx="0.26458332"
         ry="0.26458332"
         inkscape:export-filename="D:\sotm-baltics-600.png"
         inkscape:export-xdpi="103.01"
         inkscape:export-ydpi="103.01" />
      <rect
         style="fill:#fdb913;fill-opacity:1;stroke:none;stroke-width:0.130612"
         id="rect3931-1"
         width="1.0583333"
         height="1.0583333"
         x="78.574448"
         y="106.54399"
         rx="0.26458332"
         ry="0.26458332"
         inkscape:export-filename="D:\sotm-baltics-600.png"
         inkscape:export-xdpi="103.01"
         inkscape:export-ydpi="103.01" />
      <rect
         y="104.97134"
         x="78.574448"
         height="1.0583333"
         width="1.0583333"
         id="rect3933-1"
         style="fill:#9e3039;fill-opacity:1;stroke:none;stroke-width:0.130612"
         rx="0.26458332"
         ry="0.26458332"
         inkscape:export-filename="D:\sotm-baltics-600.png"
         inkscape:export-xdpi="103.01"
         inkscape:export-ydpi="103.01" />
      <rect
         style="fill:#9e3039;fill-opacity:1;stroke:none;stroke-width:0.130612"
         id="rect3935-5"
         width="1.0583333"
         height="1.0583333"
         x="78.574448"
         y="103.39869"
         rx="0.26458332"
         ry="0.26458332"
         inkscape:export-filename="D:\sotm-baltics-600.png"
         inkscape:export-xdpi="103.01"
         inkscape:export-ydpi="103.01" />
      <rect
         y="101.82604"
         x="78.574448"
         height="1.0583333"
         width="1.0583333"
         id="rect3937-2"
         style="fill:#ffffff;fill-opacity:1;stroke:none;stroke-width:0.130612"
         rx="0.26458332"
         ry="0.26458332"
         inkscape:export-filename="D:\sotm-baltics-600.png"
         inkscape:export-xdpi="103.01"
         inkscape:export-ydpi="103.01" />
      <rect
         style="fill:#000000;fill-opacity:1;stroke:none;stroke-width:0.130612"
         id="rect3939-7"
         width="1.0583333"
         height="1.0583333"
         x="78.574448"
         y="100.25338"
         rx="0.26458332"
         ry="0.26458332"
         inkscape:export-filename="D:\sotm-baltics-600.png"
         inkscape:export-xdpi="103.01"
         inkscape:export-ydpi="103.01" />
      <rect
         y="98.68074"
         x="78.574448"
         height="1.0583333"
         width="1.0583333"
         id="rect3941-6"
         style="fill:#4891d9;fill-opacity:1;stroke:none;stroke-width:0.130612"
         rx="0.26458332"
         ry="0.26458332"
         inkscape:export-filename="D:\sotm-baltics-600.png"
         inkscape:export-xdpi="103.01"
         inkscape:export-ydpi="103.01" />
    </g>
    <path
       style="font-weight:bold;font-size:19.7556px;line-height:125%;font-family:Oblik;-inkscape-font-specification:'Oblik Bold';stroke-width:0.5;stroke-linecap:round;stroke-linejoin:round"
       d="m 22.327789,83.974336 c -0.908757,-0.316089 -2.271894,-0.711201 -2.271894,-1.758248 0,-1.086558 1.284114,-1.30387 2.311405,-1.30387 1.185336,0 2.568228,0.256823 3.556008,0.770469 h 0.335846 V 79.15397 c -1.461915,-0.49389 -2.765784,-0.671691 -3.911609,-0.671691 -2.765784,0 -4.9389,1.343381 -4.9389,3.793076 0,1.600203 0.829735,2.82505 2.252138,3.516496 1.007536,0.49389 1.896538,0.750713 2.943585,1.106314 0.84949,0.296334 1.857026,0.711202 1.876782,1.65947 0.01975,1.48167 -2.054583,1.758249 -3.121385,1.758249 -1.461915,0 -2.726273,-0.395112 -3.812831,-0.80998 h -0.31609 v 2.528717 c 1.343381,0.434623 2.686762,0.711202 4.109165,0.711202 1.48167,0 3.239919,-0.296334 4.425255,-1.284114 0.829735,-0.691446 1.363136,-1.778004 1.363136,-2.943585 0,-1.778004 -0.790224,-2.765784 -2.054582,-3.496741 -0.869247,-0.454379 -1.857027,-0.750713 -2.746029,-1.047047 z m 6.776163,3.378208 c 0,3.279429 2.015071,5.393279 4.958655,5.393279 2.943585,0 4.919145,-2.11385 4.919145,-5.393279 0,-3.27943 -1.995316,-5.393279 -4.919145,-5.393279 -2.943584,0 -4.958655,2.113849 -4.958655,5.393279 z m 2.587983,0 c 0,-1.936049 0.948269,-3.160896 2.350917,-3.160896 1.402647,0 2.350916,1.224847 2.350916,3.160896 0,1.936049 -0.928513,3.160896 -2.350916,3.160896 -1.402648,0 -2.350917,-1.224847 -2.350917,-3.160896 z m 12.327503,-7.487373 h -2.508962 v 2.311406 h -1.145824 v 2.173116 h 1.145824 v 4.721588 c 0,2.449694 1.027292,3.674542 3.476986,3.674542 0.612424,0 1.264358,-0.13829 2.015071,-0.414868 v -2.252138 h -0.276578 c -0.474135,0.296334 -0.968025,0.434623 -1.442159,0.434623 -0.790224,0 -1.264358,-0.158045 -1.264358,-1.047047 v -5.1167 h 2.627494 v -2.173116 h -2.627494 z m 7.981251,3.575764 2.825051,9.087576 h 2.726273 l 2.805295,-9.087576 h 0.07902 l 0.395112,9.087576 h 2.667006 L 62.866269,80.339306 c -0.05927,-1.086558 -0.928513,-1.778004 -1.97556,-1.778004 -0.948269,0 -1.65947,0.513645 -1.936049,1.402647 l -2.706517,8.71222 h -0.07902 l -2.746029,-8.71222 c -0.296334,-0.889002 -0.987779,-1.402647 -1.936048,-1.402647 -1.047047,0 -1.916293,0.691446 -1.97556,1.778004 l -0.632179,12.189205 h 2.667006 l 0.375356,-9.087576 z m 24.437665,9.087576 h 5.215479 c 2.785539,0 5.175967,-1.145825 5.175967,-4.188187 0,-1.698982 -0.908758,-2.726273 -2.370672,-3.180652 v -0.07902 c 1.244603,-0.375357 1.738493,-1.560693 1.738493,-2.706517 0,-2.29165 -1.896538,-3.674542 -4.425255,-3.674542 h -2.64725 c -1.501426,0 -2.686762,1.205092 -2.686762,2.686762 z m 7.645418,-4.346232 c 0,1.778004 -1.145825,1.97556 -2.587984,1.97556 h -2.410183 v -3.793075 h 2.15336 c 1.442159,0 2.844807,0.1778 2.844807,1.817515 z m -4.998167,-6.42057 c 0,-0.395112 0.256823,-0.691446 0.651935,-0.691446 h 1.303869 c 1.560693,0 2.449695,0.256823 2.449695,1.540937 0,1.540937 -1.422404,1.540937 -2.508962,1.540937 h -1.896537 z m 15.76497,10.766802 h 2.410183 v -7.072505 c 0,-2.607739 -2.192872,-3.496741 -4.563544,-3.496741 -1.086558,0 -2.074338,0.197556 -3.062118,0.49389 v 2.29165 h 0.276579 c 0.770468,-0.395112 1.857026,-0.612424 2.746028,-0.612424 0.691446,0 2.094094,0.355601 2.094094,1.382892 l -3.141141,0.49389 c -1.600203,0.237067 -3.022606,1.461914 -2.983095,3.358452 0.05927,2.015071 1.580448,3.378208 3.63503,3.378208 0.968025,0 1.778004,-0.355601 2.508961,-1.086558 h 0.07902 z m -3.694297,-3.299185 c 0,-0.790224 0.513645,-1.165581 1.205091,-1.30387 0.869247,-0.1778 1.540937,-0.256823 2.390428,-0.414867 v 2.33116 c -0.651935,0.454379 -1.264359,0.711202 -2.034827,0.711202 -0.829735,0 -1.560692,-0.355601 -1.560692,-1.323625 z m 11.576792,-11.18167 h -2.50896 v 11.023625 c 0,2.449694 1.02729,3.674542 3.47698,3.674542 0.61243,0 1.26436,-0.13829 2.01508,-0.414868 v -2.252138 h -0.27658 c -0.47414,0.296334 -0.96803,0.434623 -1.44216,0.434623 -0.79023,0 -1.26436,-0.158045 -1.26436,-1.047047 z m 7.03298,1.817515 h -2.50896 v 2.311406 h -1.14582 v 2.173116 h 1.14582 v 4.721588 c 0,2.449694 1.02729,3.674542 3.47699,3.674542 0.61242,0 1.26436,-0.13829 2.01507,-0.414868 v -2.252138 h -0.27658 c -0.47413,0.296334 -0.96802,0.434623 -1.44216,0.434623 -0.79022,0 -1.26436,-0.158045 -1.26436,-1.047047 v -5.1167 h 2.6275 v -2.173116 h -2.6275 z m 7.0725,2.311406 h -2.50896 v 10.351934 h 2.50896 z m 0.0593,-3.476986 h -2.62749 v 2.46945 h 2.62749 z m 10.52973,6.183503 v -2.29165 c -1.0668,-0.434623 -1.9558,-0.632179 -3.10163,-0.632179 -3.29918,0 -5.09694,2.449694 -5.09694,5.393279 0,2.923829 1.99531,5.393279 5.09694,5.393279 1.04705,0 2.07434,-0.07902 3.12139,-0.553157 v -2.29165 h -0.27658 c -0.77047,0.454379 -1.83727,0.612424 -2.70652,0.612424 -1.99531,0 -2.64725,-1.600204 -2.64725,-3.141141 0,-1.857026 0.63218,-3.180651 2.64725,-3.180651 0.889,0 2.03483,0.1778 2.68676,0.691446 z m 4.91916,7.862729 c 1.97556,0 4.32647,-0.948269 4.32647,-3.397964 0,-1.145824 -0.3556,-2.232382 -2.01507,-2.923828 l -1.99531,-0.829736 c -0.43463,-0.1778 -0.94827,-0.454378 -0.94827,-0.770468 0,-0.592668 0.84949,-0.67169 1.30387,-0.67169 0.79022,0 1.79776,0.1778 2.50896,0.572912 h 0.29633 v -2.252138 c -1.0668,-0.355601 -1.71873,-0.513646 -2.98309,-0.513646 -1.91629,0 -3.55601,0.98778 -3.55601,2.96334 0,1.027291 0.39511,2.133605 1.81752,2.746028 l 1.9558,0.829736 c 0.39511,0.1778 1.18534,0.434623 1.18534,1.007535 0,0.928513 -1.28412,1.066803 -1.99532,1.066803 -0.84949,0 -2.1336,-0.217312 -2.94358,-0.592668 h -0.27658 v 2.252138 c 1.02729,0.31609 2.21262,0.513646 3.31894,0.513646 z m 19.24197,-2.410184 h -5.21548 v -0.05927 l 3.8721,-4.464766 c 1.00753,-1.16558 1.36313,-2.173116 1.36313,-3.220163 0,-2.805295 -2.15336,-4.109165 -4.52403,-4.109165 -1.20509,0 -2.17312,0.237068 -3.29918,0.829736 v 2.291649 h 0.27657 c 0.67169,-0.553157 1.60021,-0.889002 2.68677,-0.889002 1.08655,0 2.27189,0.691446 2.27189,1.955805 0,0.414867 -0.21731,0.968024 -0.80998,1.698981 l -5.21548,6.539104 v 1.619959 h 8.59369 z m 1.79777,-4.721588 c 0,4.326476 2.33116,7.131772 5.86741,7.131772 3.53625,0 5.88717,-2.805296 5.88717,-7.131772 0,-4.326476 -2.35092,-7.131772 -5.88717,-7.131772 -3.53625,0 -5.86741,2.805296 -5.86741,7.131772 z m 2.58798,0.01976 c 0,-3.002852 1.26436,-4.919145 3.27943,-4.919145 2.01507,0 3.29919,1.916293 3.29919,4.919145 0,3.002851 -1.28412,4.879633 -3.29919,4.879633 -1.99531,0 -3.27943,-1.876782 -3.27943,-4.879633 z m 18.55052,4.701832 h -5.21548 v -0.05927 l 3.8721,-4.464766 c 1.00753,-1.16558 1.36313,-2.173116 1.36313,-3.220163 0,-2.805295 -2.15336,-4.109165 -4.52403,-4.109165 -1.20509,0 -2.17311,0.237068 -3.29918,0.829736 v 2.291649 h 0.27658 c 0.67169,-0.553157 1.6002,-0.889002 2.68676,-0.889002 1.08655,0 2.27189,0.691446 2.27189,1.955805 0,0.414867 -0.21731,0.968024 -0.80998,1.698981 l -5.21548,6.539104 v 1.619959 h 8.59369 z m 11.04338,-8.771486 v -2.29165 c -1.0668,-0.572912 -1.91629,-0.790224 -3.12138,-0.790224 -2.07434,0.01976 -3.79308,0.968025 -4.87963,2.726273 -0.88901,1.442159 -1.24461,3.141141 -1.24461,4.800611 0,1.521181 0.13829,3.081874 0.94827,4.425254 0.889,1.501426 2.42994,2.311406 4.0499,2.311406 2.94358,0 4.99817,-2.192872 4.99817,-5.136456 0,-2.864562 -1.93605,-5.017923 -4.60306,-5.017923 -0.94827,0 -1.93605,0.237067 -2.50896,0.691446 h -0.079 c 0.47413,-1.48167 1.71874,-2.627495 3.29918,-2.627495 0.96803,0 2.07434,0.256823 2.86457,0.908758 z m -4.26721,3.220163 c 1.65947,0 2.42994,1.422403 2.42994,2.864562 0,1.540937 -0.79022,2.923829 -2.33116,2.923829 -1.46191,0 -2.42994,-1.363137 -2.42994,-2.78554 0,-1.540937 0.63218,-3.002851 2.33116,-3.002851 z"
       id="text21075"
       aria-label="SotM  Baltics 2026" />
  </g>
</svg>
